# xmcd
#
# Track frame offsets:
#   150
#   33959
#   52039
#   67082
#   85724
#   97845
#   117991
#   131512
#   158607
#   181843
#   195134
#   213118
#   231574
#   256791
#   280574
#   291178
#   308212
#
# Disc length: 4427 seconds
#
# Revision: 0
# Processed by: cddbd v1.5.2PL0 Copyright (c) Steve Scherf et al.
# Submitted via: uFREEDB 1.6.2
#
DISCID=df114911
DTITLE=brb - gdbd
DYEAR=1900
DGENRE=Books and Spoken
TTITLE0=tapei060901
TTITLE1=060902
TTITLE2=060903
TTITLE3=060904
TTITLE4=060905
TTITLE5=060906
TTITLE6=060907
TTITLE7=060908
TTITLE8=060909
TTITLE9=060910
TTITLE10=060911
TTITLE11=060912
TTITLE12=060913
TTITLE13=060914
TTITLE14=060915
TTITLE15=060916
TTITLE16=060917
EXTD=
EXTT0=
EXTT1=
EXTT2=
EXTT3=
EXTT4=
EXTT5=
EXTT6=
EXTT7=
EXTT8=
EXTT9=
EXTT10=
EXTT11=
EXTT12=
EXTT13=
EXTT14=
EXTT15=
EXTT16=
PLAYORDER=
